<svg width="100" height="100" viewBox="0 0 100 100" fill="none" xmlns="http://www.w3.org/2000/svg">
<path d="M74.6665 39.2099C74.4499 43.6898 71.1394 49.8244 64.7366 57.6102C58.1167 65.7434 52.5158 69.8095 47.934 69.8095C45.0969 69.8095 42.694 67.3336 40.7327 62.3801C39.422 57.8395 38.1127 53.2993 36.8024 48.7587C35.3451 43.8079 33.7827 41.3293 32.1121 41.3293C31.7479 41.3293 30.4732 42.0537 28.2909 43.4969L26 40.7073C28.4029 38.7115 30.7736 36.7161 33.1059 34.718C36.3107 32.1002 38.7165 30.7235 40.3198 30.5843C44.1094 30.2403 46.4417 32.6886 47.3171 37.9297C48.2632 43.5842 48.9176 47.1014 49.2857 48.478C50.3778 53.1693 51.5795 55.512 52.8927 55.512C53.9118 55.512 55.4426 53.9906 57.4837 50.9479C59.5228 47.9043 60.615 45.5888 60.7625 43.9981C61.0527 41.3715 59.9601 40.0551 57.4837 40.0551C56.318 40.0551 55.1164 40.3086 53.8801 40.8098C56.2728 33.401 60.8448 29.803 67.5933 30.0083C72.5962 30.147 74.9548 33.2141 74.6665 39.2099Z" fill="white"/>
</svg>
